<svg xmlns="http://www.w3.org/2000/svg" stroke-linecap="square" stroke-miterlimit="10" x="0" y="0" viewBox="3.7434463500976562 1.9835455417633057 92.51310729980469 96.03290557861328" height="155.8778508630488" width="150.1646155103706" class="icon-icon-0" data-fill-palette-color="accent" id="icon-0">
    <path fill="#000000" fill-rule="evenodd" d="M47.958 1.984V42.401h1.32v-5.559a1.021 1.021 0 0 1 1.006-1.02 1.021 1.021 0 0 1 0.737 0.298l1.021 1.021V1.984zM19.924 6.224c-3.866 0-7 3.133-7 7 0 3.866 3.133 7.001 7 7.001s7.001-3.134 7.001-7.001c0-1.857-0.738-3.637-2.05-4.95-1.313-1.313-3.094-2.05-4.951-2.05z m44.833 0.028c-3.866 0-7.001 3.134-7.001 7.001 0 3.866 3.134 7 7.001 7 3.866 0 7.001-3.133 7.001-7 0-1.857-0.738-3.637-2.05-4.95-1.313-1.313-3.094-2.051-4.951-2.051z m24.499 0c-3.866 0-7.001 3.134-7.001 7.001 0 3.866 3.134 7 7.001 7 3.866 0 7.001-3.133 7.001-7 0-1.857-0.738-3.637-2.051-4.95-1.313-1.313-3.094-2.051-4.95-2.051zM33.873 17.753c-3.866 0-7.001 3.133-7.001 6.999 0 3.866 3.134 7.001 7.001 7.001 3.866 0 7.001-3.134 7.001-7.001 0-1.857-0.738-3.636-2.051-4.949-1.313-1.313-3.094-2.051-4.95-2.05z m-23.129 3.977c-3.866 0-7.001 3.134-7.001 7.001 0 3.866 3.134 7.001 7.001 7.001 3.866 0 7.001-3.134 7.001-7.001 0-1.857-0.738-3.637-2.05-4.951-1.313-1.313-3.094-2.051-4.951-2.05z m10.498 15.505c-3.866 0-7.001 3.134-7.001 7.001 0 3.866 3.134 7.001 7.001 7.001 3.866 0 7.001-3.134 7.001-7.001 0-1.857-0.738-3.637-2.051-4.951-1.313-1.313-3.094-2.051-4.95-2.05zM51.32 39.307v4.114a1.021 1.021 0 0 1-1.021 1.021H31.765v11.116h18.534a1.021 1.021 0 0 1 1.021 1.021v4.115l10.693-10.694z m13.437 3.693c-1.897 0-3.607 0.765-4.866 1.991l4.287 4.288a1.021 1.021 0 0 1 0 1.443l-4.287 4.288c1.259 1.226 2.97 1.991 4.866 1.99 3.866 0 7.001-3.133 7.001-7 0-1.857-0.738-3.637-2.05-4.95-1.313-1.313-3.094-2.051-4.951-2.05z m24.499 0c-3.866 0-7.001 3.134-7.001 7 0 3.866 3.134 7 7.001 7 3.866 0 7.001-3.133 7.001-7 0-1.857-0.738-3.637-2.051-4.95-1.313-1.313-3.094-2.051-4.95-2.05zM31.525 57.599c-1.105 1.236-1.782 2.861-1.782 4.651 0 3.866 3.134 7 7.001 7 3.866 0 7.001-3.133 7.001-7 0-1.721-0.64-3.372-1.779-4.651z m16.433 0v40.417h4.084V62.859l-1.021 1.021a1.021 1.021 0 0 1-1.743-0.722v-5.559zM15.102 65.343c-3.866 0-7.001 3.133-7 7 0 3.866 3.134 7.001 7 7.001 3.866 0 7.001-3.134 7.001-7.001 0-1.857-0.738-3.637-2.05-4.951-1.313-1.313-3.094-2.05-4.951-2.049z m49.655 14.404c-3.866 0-7.001 3.134-7.001 7.001 0 3.866 3.134 7 7.001 7 3.866 0 7.001-3.133 7.001-7 0-1.857-0.738-3.637-2.05-4.95-1.313-1.313-3.094-2.051-4.951-2.051z m24.499 0c-3.866 0-7.001 3.134-7.001 7.001 0 3.866 3.134 7 7.001 7 3.866 0 7.001-3.133 7.001-7 0-1.857-0.738-3.637-2.051-4.95-1.313-1.313-3.094-2.051-4.95-2.051z" color="#440066" font-family="sans-serif" font-weight="400" overflow="visible" white-space="normal" font-variant-ligatures="normal" font-variant-position="normal" font-variant-caps="normal" font-variant-numeric="normal" font-variant-alternates="normal" font-feature-settings="normal" text-indent="0" text-decoration-line="none" text-decoration-style="solid" text-decoration-color="#ffbe79" text-transform="none" text-orientation="mixed" shape-padding="0" isolation="auto" mix-blend-mode="normal" data-fill-palette-color="accent"></path>
</svg>
