<?xml version="1.0" encoding="utf-8"?>
<svg width="96" height="96" viewBox="0 0 96 96" fill="none" xmlns="http://www.w3.org/2000/svg">
    <path d="M48 96C21.12 96 13.8831 94.6412 7.62092 88.3791C1.32923 82.0726 0 74.88 0 48C0 21.12 1.35877 13.9274 7.62092 7.62092C13.8831 1.35877 21.12 0 48 0C74.88 0 82.1169 1.35877 88.3791 7.62092C94.6708 13.9274 96 21.12 96 48C96 74.88 94.6708 82.0726 88.3791 88.3791C82.1169 94.6412 74.88 96 48 96Z" fill="black" />
    <path d="M66.8308 47.9556C64.9994 47.9556 63.8031 46.7445 63.8031 44.9574C63.8031 43.1999 65.0142 42.0036 66.8308 42.0036H71.616V47.9556H66.8308ZM75.6185 38.5476H66.3582C62.4296 38.5476 59.7416 41.1174 59.7416 44.8097C59.7416 47.734 61.4105 49.9494 64.0542 50.7174L59.0031 58.4122H63.4782L68.0271 51.4116H71.6013V58.4122H75.6185V38.5476ZM25.5213 43.7611V37.7648H33.3047V54.7642H23.5422C24.5908 52.9328 25.5213 48.694 25.5213 43.7611ZM37.4253 33.9248H21.5484V43.9236C21.5484 49.019 20.6474 52.9919 19.4511 54.779H17.5459V63.8473H21.4745V58.486H36.3324V63.8473H40.261V54.779H37.4253V33.9248ZM49.4031 55.0448L49.0487 54.8085L53.6862 38.5476H44.3077L43.3034 42.166L48.7533 42.1217L45.2087 54.5279C44.5884 56.7876 46.1096 58.8848 48.5908 58.8848C49.3736 58.8848 50.1416 58.6928 50.9982 58.1464L57.3785 53.8337L55.429 50.9537L49.4031 55.0448ZM52.1207 34.811C54.0997 34.811 54.9268 34.0725 54.9268 32.315C54.9268 30.4836 54.0702 29.7451 52.1207 29.7451C50.1711 29.7451 49.3145 30.4836 49.3145 32.315C49.3293 34.0725 50.1416 34.811 52.1207 34.811Z" fill="white" />
</svg>
