<?xml version="1.0" encoding="UTF-8" standalone="no"?>
<!DOCTYPE svg PUBLIC "-//W3C//DTD SVG 1.1//EN" "http://www.w3.org/Graphics/SVG/1.1/DTD/svg11.dtd">
<!-- Created with Vectornator (http://vectornator.io/) -->
<svg height="100%" stroke-miterlimit="10" style="fill-rule:nonzero;clip-rule:evenodd;stroke-linecap:round;stroke-linejoin:round;" version="1.1" viewBox="0 0 96 96" width="100%" xml:space="preserve" xmlns="http://www.w3.org/2000/svg" xmlns:vectornator="http://vectornator.io" xmlns:xlink="http://www.w3.org/1999/xlink">
<defs/>
<g id="Icon" vectornator:layerName="Icon">
<path d="M48 96C21.12 96 13.8831 94.6412 7.62092 88.3791C1.32923 82.0726 0 74.88 0 48C0 21.12 1.35877 13.9274 7.62092 7.62092C13.8831 1.35877 21.12 0 48 0C74.88 0 82.1169 1.35877 88.3791 7.62092C94.6708 13.9274 96 21.12 96 48C96 74.88 94.6708 82.0726 88.3791 88.3791C82.1169 94.6412 74.88 96 48 96Z" fill="#91d04b" fill-opacity="0.780371" fill-rule="nonzero" opacity="1" stroke="none"/>
<path d="M66.8308 47.9556C64.9994 47.9556 63.8031 46.7445 63.8031 44.9574C63.8031 43.1999 65.0142 42.0036 66.8308 42.0036L71.616 42.0036L71.616 47.9556L66.8308 47.9556ZM75.6185 38.5476L66.3582 38.5476C62.4296 38.5476 59.7416 41.1174 59.7416 44.8097C59.7416 47.734 61.4105 49.9494 64.0542 50.7174L59.0031 58.4122L63.4782 58.4122L68.0271 51.4116L71.6013 51.4116L71.6013 58.4122L75.6185 58.4122L75.6185 38.5476ZM25.5213 43.7611L25.5213 37.7648L33.3047 37.7648L33.3047 54.7642L23.5422 54.7642C24.5908 52.9328 25.5213 48.694 25.5213 43.7611ZM37.4253 33.9248L21.5484 33.9248L21.5484 43.9236C21.5484 49.019 20.6474 52.9919 19.4511 54.779L17.5459 54.779L17.5459 63.8473L21.4745 63.8473L21.4745 58.486L36.3324 58.486L36.3324 63.8473L40.261 63.8473L40.261 54.779L37.4253 54.779L37.4253 33.9248ZM49.4031 55.0448L49.0487 54.8085L53.6862 38.5476L44.3077 38.5476L43.3034 42.166L48.7533 42.1217L45.2087 54.5279C44.5884 56.7876 46.1096 58.8848 48.5908 58.8848C49.3736 58.8848 50.1416 58.6928 50.9982 58.1464L57.3785 53.8337L55.429 50.9537L49.4031 55.0448ZM52.1207 34.811C54.0997 34.811 54.9268 34.0725 54.9268 32.315C54.9268 30.4836 54.0702 29.7451 52.1207 29.7451C50.1711 29.7451 49.3145 30.4836 49.3145 32.315C49.3293 34.0725 50.1416 34.811 52.1207 34.811Z" fill="#3e68ff" fill-rule="nonzero" opacity="0" stroke="none"/>
<path d="M36.3265 55.7526C33.2486 55.7526 30.7527 58.1924 30.7535 61.2039C30.7535 64.2145 33.2486 66.6551 36.3265 66.6551C39.4044 66.6551 41.8996 64.2153 41.8996 61.2039C41.8996 59.7577 41.3269 58.3577 40.2824 57.3345C39.2371 56.312 37.805 55.7518 36.3265 55.7526ZM59.7432 51.8937C56.6653 51.8937 54.1693 54.3335 54.1701 57.345C54.1701 60.3556 56.6653 62.7962 59.7432 62.7962C62.8211 62.7962 65.3162 60.3564 65.3162 57.345C65.3162 55.8988 64.7436 54.4988 63.699 53.4756C62.6537 52.4531 61.2216 51.8929 59.7432 51.8937ZM59.7432 32.4251C56.6653 32.4251 54.1693 34.8649 54.1701 37.8763C54.1701 40.8869 56.6653 43.3275 59.7432 43.3275C62.8211 43.3275 65.3162 40.8877 65.3162 37.8763C65.3162 36.4302 64.7436 35.0302 63.699 34.0069C62.6537 32.9844 61.2216 32.4243 59.7432 32.4251ZM47.2039 10.6202L47.2807 85.2739L48.7032 85.3798L48.7961 10.6202L47.2039 10.6202ZM24.0659 13.9298C20.988 13.9298 18.4928 16.3697 18.4928 19.3811C18.4928 22.3917 20.9872 24.8323 24.0659 24.8323C27.1446 24.8323 29.6389 22.3925 29.6389 19.3811C29.6389 17.9349 29.0414 16.5342 27.9968 15.5117C26.9515 14.4892 25.5443 13.9299 24.0659 13.9298ZM79.2487 13.9542C76.1708 13.9542 73.6757 16.394 73.6757 19.4054C73.6757 22.416 76.17 24.8566 79.2487 24.8566C82.3266 24.8566 84.8218 22.4168 84.8218 19.4054C84.8218 17.9593 84.2499 16.5585 83.2046 15.536C82.1592 14.5135 80.7264 13.9542 79.2487 13.9542ZM59.7432 13.9532C56.6653 13.9532 54.1701 16.393 54.1701 19.4044C54.1701 22.4151 56.6645 24.8557 59.7432 24.8557C62.8211 24.8557 65.3162 22.4158 65.3162 19.4044C65.3162 17.9583 64.7443 16.5575 63.699 15.535C62.6537 14.5125 61.2208 13.9532 59.7432 13.9532ZM35.1621 22.9098C32.0842 22.9098 29.5891 25.3504 29.5891 28.361C29.5891 31.3716 32.0834 33.8122 35.1621 33.8122C38.24 33.8122 40.7352 31.3724 40.7352 28.361C40.7352 26.9149 40.1385 25.5141 39.0931 24.4916C38.0478 23.4691 36.6398 22.909 35.1621 22.9098ZM16.7513 26.0004C13.6734 26.0004 11.1782 28.4402 11.1782 31.4516C11.1782 34.4623 13.6726 36.9029 16.7513 36.9029C19.8292 36.9029 22.3243 34.463 22.3243 31.4516C22.3243 30.0055 21.7268 28.6299 20.6822 27.6066C19.6369 26.5841 18.2297 25.9996 16.7513 26.0004ZM25.1108 38.071C22.0329 38.071 19.5378 40.5108 19.5378 43.5222C19.5378 46.5328 22.0321 48.9734 25.1108 48.9734C28.1887 48.9734 30.6838 46.5336 30.6838 43.5222C30.6838 42.0761 30.0871 40.7004 29.0418 39.6771C27.9964 38.6547 26.5884 38.0702 25.1108 38.071ZM79.2487 51.8937C76.1708 51.8937 73.6757 54.3343 73.6757 57.345C73.6757 60.3556 76.17 62.7962 79.2487 62.7962C82.3266 62.7962 84.8218 60.3564 84.8218 57.345C84.8218 55.8988 84.2499 54.4981 83.2046 53.4756C82.1592 52.4531 80.7264 51.893 79.2487 51.8937ZM79.2487 32.4251C76.1708 32.4251 73.6757 34.8657 73.6757 37.8763C73.6757 40.8869 76.17 43.3275 79.2487 43.3275C82.3266 43.3275 84.8218 40.8877 84.8218 37.8763C84.8218 36.4302 84.2499 35.0294 83.2046 34.0069C82.1592 32.9844 80.7264 32.4243 79.2487 32.4251ZM20.2095 59.9732C17.1316 59.9732 14.6357 62.413 14.6365 65.4244C14.6365 68.4351 17.1316 70.8757 20.2095 70.8757C23.2874 70.8757 25.7825 68.4359 25.7825 65.4244C25.7825 63.9783 25.2099 62.5783 24.1654 61.5551C23.12 60.5326 21.688 59.9724 20.2095 59.9732ZM59.7432 71.192C56.6653 71.192 54.1701 73.6318 54.1701 76.6433C54.1701 79.6539 56.6645 82.0945 59.7432 82.0945C62.8211 82.0945 65.3162 79.6547 65.3162 76.6433C65.3162 75.1971 64.7435 73.7964 63.699 72.7739C62.6537 71.7514 61.2216 71.192 59.7432 71.192ZM79.2487 71.192C76.1708 71.192 73.6757 73.6318 73.6757 76.6433C73.6757 79.6539 76.17 82.0945 79.2487 82.0945C82.3266 82.0945 84.8218 79.6547 84.8218 76.6433C84.8218 75.1971 84.2499 73.7964 83.2046 72.7739C82.1592 71.7514 80.7264 71.192 79.2487 71.192Z" fill="#000000" fill-rule="nonzero" opacity="1" stroke="none"/>
</g>
</svg>
